PathFileType	4	(X/Y/Z)	 s09c0302.trc
DataRate	CameraRate	NumFrames	NumMarkers	Units	OrigDataRate	OrigDataStartFrame	OrigNumFrames
200	200	4	50	mm	200	751	2000
Frame#	Time	racr			lacr			c7			jug			rlel			rdr			llel			ldr			s2			lic			ric			lasi			rasi			rpsi			lpsi			rgt			lgt			rth1			rth2			rth3			rth4			rlfc			rmfc			rsh1			rsh2			rsh3			rsh4			rlmal			rmmal			rcal			rtoe			rmt5			lth1			lth2			lth4			lth3			llfc			lmfc			llmal			lmmal			lcal			lmt5			lsh1			lsh2			lsh3			lsh4			ltoe			SBIKE			LBIKE			RBIKE			
		X1	Y1	Z1	X2	Y2	Z2	X3	Y3	Z3	X4	Y4	Z4	X5	Y5	Z5	X6	Y6	Z6	X7	Y7	Z7	X8	Y8	Z8	X9	Y9	Z9	X10	Y10	Z10	X11	Y11	Z11	X12	Y12	Z12	X13	Y13	Z13	X14	Y14	Z14	X15	Y15	Z15	X16	Y16	Z16	X17	Y17	Z17	X18	Y18	Z18	X19	Y19	Z19	X20	Y20	Z20	X21	Y21	Z21	X22	Y22	Z22	X23	Y23	Z23	X24	Y24	Z24	X25	Y25	Z25	X26	Y26	Z26	X27	Y27	Z27	X28	Y28	Z28	X29	Y29	Z29	X30	Y30	Z30	X31	Y31	Z31	X32	Y32	Z32	X33	Y33	Z33	X34	Y34	Z34	X35	Y35	Z35	X36	Y36	Z36	X37	Y37	Z37	X38	Y38	Z38	X39	Y39	Z39	X40	Y40	Z40	X41	Y41	Z41	X42	Y42	Z42	X43	Y43	Z43	X44	Y44	Z44	X45	Y45	Z45	X46	Y46	Z46	X47	Y47	Z47	X48	Y48	Z48	X49	Y49	Z49	X50	Y50	Z50	
751	3.7550	639.405949	1390.240713	-94.138543	723.596606	1322.991284	-426.551441	665.428250	1402.809651	-266.561139	684.976257	1272.753074	-241.891798	586.443154	1122.785856	-55.070126	720.720105	894.057756	-64.664367	600.844916	1083.455020	-527.750426	712.775124	879.931482	-462.170313	216.896771	1163.520140	-330.592770	390.649038	1107.609854	-420.170991	320.037516	1197.138441	-156.721701	409.001266	1057.398979	-373.713803	358.218506	1137.684315	-147.262460	231.470790	1206.662016	-274.035745	265.091950	1182.192116	-372.162064	276.483641	1074.316043	-87.192932	324.895100	987.336912	-450.179585	398.114279	1000.104689	-73.939732	483.216856	979.188953	-71.584064	543.470816	914.539922	-64.095853	500.964722	1002.034726	-94.367923	611.372870	828.728773	-83.118182	606.271147	806.220701	-184.332155	524.451475	770.500053	-63.606854	476.295003	695.326297	-76.869336	398.406924	656.425364	-79.726864	498.991605	675.687193	-102.510402	323.286073	581.010631	-82.938909	331.711641	592.199171	-159.232345	237.897303	586.563952	-120.325394	470.078277	457.083524	-130.913481	391.325483	480.782229	-64.713146	341.330042	863.587313	-441.201700	374.623839	786.566712	-427.934399	408.025041	791.727554	-409.838880	363.232917	696.890682	-419.007694	354.094604	600.077135	-401.540918	352.020364	585.709306	-302.824118	168.360432	284.575399	-411.727519	190.992653	283.702330	-344.210923	95.799688	284.132010	-375.450969	221.175299	160.838902	-430.737204	297.675752	516.197042	-426.249352	277.901148	432.383867	-418.442503	217.367140	367.558149	-417.590564	301.581639	422.212888	-387.725270	309.718348	132.945532	-360.903130	-65.984023	851.889053	-240.500592	20.712295	84.638749	-442.245855	20.875913	84.219900	-44.006704	
752	3.7600	639.969039	1389.537313	-91.946970	725.324566	1322.808810	-423.190384	667.250441	1402.615084	-263.520722	684.882011	1272.174580	-239.414353	586.267073	1122.286498	-54.115671	720.569925	894.069924	-64.526576	602.072209	1084.301642	-525.997021	713.478378	879.765176	-461.077947	217.722903	1165.479387	-331.808727	391.820176	1109.523051	-421.041146	319.830502	1198.482701	-157.492392	409.871960	1059.162632	-374.566844	357.919826	1138.802065	-147.877904	231.861164	1208.516394	-275.345621	265.410923	1183.740754	-373.592660	276.005483	1075.541767	-88.396433	325.311469	989.155558	-451.345813	396.368902	1000.148154	-75.019568	481.339424	979.053566	-72.015242	541.556309	914.236008	-64.472740	499.440813	1002.041821	-94.271315	610.369990	828.823239	-83.887617	605.715220	806.513892	-184.818692	524.753286	768.351287	-64.142565	478.412055	692.239983	-77.427063	401.506550	651.421455	-80.449778	501.656569	673.492504	-102.788334	328.321171	574.327199	-83.777545	336.540018	585.657244	-160.063286	242.715650	576.694439	-121.145460	479.055025	455.392902	-130.614665	399.141797	476.740143	-64.692673	342.462325	865.076453	-442.225307	376.129170	788.305002	-428.825781	409.533553	793.514064	-410.723042	365.126602	698.515461	-419.717067	355.590651	601.312791	-402.499769	354.592661	586.743222	-304.045280	161.711556	290.548802	-411.836328	184.533668	289.165813	-344.156801	89.247756	291.255261	-375.100807	212.145039	165.861652	-430.937939	297.046874	518.717949	-427.022018	275.144223	435.475814	-418.922010	212.854687	372.379997	-417.935730	298.603165	424.678584	-388.299600	300.372346	136.666397	-361.036991	-65.934760	851.907572	-240.415450	20.717492	84.652918	-442.253449	20.881806	84.194377	-44.002958	
753	3.7650	640.563689	1388.724114	-89.658987	726.968059	1322.535723	-419.967782	669.153326	1402.125795	-260.507995	684.681410	1271.262630	-237.232771	586.070604	1121.563116	-53.038669	720.423158	894.081725	-64.448369	603.694304	1084.920029	-523.630752	714.126868	879.567394	-459.919101	218.410382	1167.566450	-332.746536	392.804212	1111.524873	-421.925779	319.993066	1199.750113	-158.133159	410.294126	1060.620758	-375.618098	357.822208	1139.708732	-148.596979	232.476530	1210.604564	-276.317442	265.623592	1185.546526	-374.704012	275.682789	1076.710289	-89.490199	325.626810	990.965749	-452.358906	394.701981	999.473144	-76.179635	479.795899	977.874311	-72.143216	539.397153	912.970106	-64.875447	498.034018	1001.174083	-94.079041	608.953036	827.974472	-84.225753	604.703383	806.113839	-185.160776	524.991362	765.810159	-63.886474	480.314900	688.286484	-77.915743	404.386202	645.639599	-81.070376	503.989184	670.572460	-102.931969	333.310201	566.511179	-84.646175	340.825849	578.593809	-160.961440	247.281272	566.589079	-122.216478	487.744554	453.160276	-130.184010	406.894339	471.903473	-64.822222	343.762896	866.606034	-443.097028	377.841185	790.023536	-429.389274	411.329384	795.629540	-411.633207	367.508377	700.261999	-420.253419	357.683143	602.751230	-403.429353	357.732052	587.705053	-305.233887	155.401179	296.973228	-412.007731	178.518119	295.219013	-344.155749	83.204004	298.957451	-374.690462	203.573444	171.500118	-430.901295	297.198562	521.359484	-427.686930	272.887431	438.853219	-419.271612	208.868971	377.504751	-418.176910	296.115484	427.425612	-388.699807	291.567505	140.477474	-360.534626	-65.873735	851.931623	-240.335939	20.717471	84.691999	-442.245874	20.872295	84.211837	-44.018085	
754	3.7700	641.251681	1387.679588	-87.454830	728.506178	1322.150374	-416.954292	670.900861	1401.462066	-257.458075	684.591992	1270.255382	-234.947935	585.800303	1120.698727	-51.948389	720.308035	894.042019	-64.309721	604.438310	1085.760540	-522.198881	715.141726	879.693066	-460.213763	219.211881	1169.552169	-333.518098	393.617887	1113.472808	-423.431475	320.311583	1200.972265	-158.445943	411.427756	1062.336661	-376.497505	357.792317	1140.477555	-149.231135	232.073663	1212.379606	-277.169106	266.058257	1187.890154	-375.412194	275.645423	1077.881603	-90.506940	325.973876	992.810772	-453.232078	393.160830	998.656282	-77.168786	477.855828	976.585230	-72.450605	536.955299	911.003476	-65.222015	496.634331	999.953494	-93.658523	607.199141	826.341948	-84.588959	603.294032	804.714614	-185.418126	524.703675	761.892543	-64.073590	482.206947	683.192338	-78.055221	407.232007	638.817361	-81.685602	505.330776	665.839703	-104.439076	338.069598	558.189381	-85.229380	345.365709	570.633881	-161.437476	252.200496	556.024897	-123.373541	495.860938	450.110479	-129.837528	414.294765	466.169459	-64.772513	345.170357	868.085294	-443.872719	379.870931	791.868068	-430.071857	413.412828	797.822166	-412.497976	370.252456	702.118705	-420.795623	360.375320	604.337260	-404.418356	361.361700	588.658189	-306.451128	149.564473	303.891561	-412.182449	172.894940	301.741385	-344.094759	77.513902	307.257176	-374.469660	195.356782	177.568755	-430.796216	297.991062	524.215929	-428.282089	271.218369	442.408925	-419.606848	205.412379	382.909155	-418.357224	294.115116	430.451710	-389.126377	282.728785	144.987191	-360.634322	-65.805533	851.965485	-240.236044	20.723489	84.760368	-442.265051	20.852610	84.201830	-44.011574	
